<?xml version="1.0" encoding="UTF-8" standalone="no"?>
<!DOCTYPE svg PUBLIC "-//W3C//DTD SVG 1.1//EN" "http://www.w3.org/Graphics/SVG/1.1/DTD/svg11.dtd">
<svg viewBox="0 0 24 24" width="100%" height="100%" version="1.1" xmlns="http://www.w3.org/2000/svg" xml:space="preserve" fill="currentColor" title="Reset icon"><path d="M17.538,8.573c-1.148,-1.852 -3.199,-3.085 -5.538,-3.085c-3.596,-0 -6.512,2.916 -6.512,6.512c-0,3.596 2.916,6.512 6.512,6.512c2.373,0 4.449,-1.269 5.588,-3.166c0.324,-0.539 1.024,-0.714 1.564,-0.39c0.539,0.324 0.714,1.024 0.39,1.564c-1.536,2.559 -4.34,4.272 -7.542,4.272c-4.855,0 -8.792,-3.937 -8.792,-8.792c-0,-4.855 3.937,-8.792 8.792,-8.792c2.584,-0 4.908,1.115 6.517,2.891l0,-3.136c0,-0.63 0.511,-1.14 1.14,-1.14c0.629,-0 1.14,0.51 1.14,1.14l0,6.75c0,0.629 -0.511,1.14 -1.14,1.14l-6.5,-0c-0.629,-0 -1.14,-0.511 -1.14,-1.14c0,-0.63 0.511,-1.14 1.14,-1.14l4.381,-0Z" /></svg>