<?xml version="1.0" encoding="UTF-8" standalone="no"?>
<!DOCTYPE svg PUBLIC "-//W3C//DTD SVG 1.1//EN" "http://www.w3.org/Graphics/SVG/1.1/DTD/svg11.dtd">
<svg viewBox="0 0 24 24" width="100%" height="100%" version="1.1" xmlns="http://www.w3.org/2000/svg" xml:space="preserve" fill="currentColor" title="Lightning"><path d="M14.876,9.12c0.951,0.115 2.021,0.265 3.194,0.47c0.343,0.06 0.639,0.276 0.802,0.584c0.162,0.308 0.172,0.674 0.028,0.991c-0.978,2.146 -6.238,9.748 -10.551,11.793c-0.366,0.174 -0.798,0.137 -1.13,-0.097c-0.332,-0.234 -0.512,-0.628 -0.471,-1.032c0.272,-2.691 0.745,-5.16 1.136,-6.815c-1.152,-0.111 -2.153,-0.335 -2.943,-0.465c-0.302,-0.05 -0.571,-0.221 -0.744,-0.473c-0.174,-0.252 -0.237,-0.564 -0.175,-0.864c0.43,-2.092 3.472,-9.601 4.973,-11.73c0.18,-0.257 0.46,-0.426 0.77,-0.467c2.159,-0.288 5.779,0.231 7.613,0.87c0.472,0.164 0.778,0.62 0.753,1.119c-0.038,0.746 -0.657,2.022 -1.486,3.346c-0.592,0.947 -1.27,1.942 -1.769,2.77Zm0.697,-5.414c-1.499,-0.358 -3.523,-0.605 -5.012,-0.509c-1.235,2.031 -3.222,6.832 -4.027,9.357c0.806,0.146 1.745,0.286 2.776,0.277c0.357,-0.004 0.693,0.162 0.908,0.446c0.215,0.284 0.283,0.653 0.182,0.995c-0.294,1.006 -0.761,3.017 -1.12,5.432c2.724,-2.163 5.479,-5.912 6.843,-8.148c-1.155,-0.169 -2.175,-0.283 -3.042,-0.367c-0.31,-0.029 -0.593,-0.186 -0.783,-0.432c-0.19,-0.247 -0.269,-0.561 -0.219,-0.868c0.12,-0.741 1.103,-2.319 2.126,-3.899c0.516,-0.796 1.029,-1.602 1.368,-2.284Z" /></svg>