<?xml version="1.0" encoding="UTF-8" standalone="no"?>
<!DOCTYPE svg PUBLIC "-//W3C//DTD SVG 1.1//EN" "http://www.w3.org/Graphics/SVG/1.1/DTD/svg11.dtd">
<svg viewBox="0 0 32 24" width="100%" height="100%" version="1.1" xmlns="http://www.w3.org/2000/svg" xml:space="preserve" fill="currentColor" title="Checkmark (Double) icon"><path d="M10.849,14.292c-0.332,-0.523 -0.287,-1.224 0.152,-1.701c0.377,-0.408 0.941,-0.542 1.439,-0.39c0.195,0.06 0.38,0.163 0.54,0.31l1.612,1.486c1.528,1.409 3.592,3.312 3.592,3.312l10.302,-13.539c0.468,-0.615 1.347,-0.734 1.962,-0.266c0.615,0.468 0.734,1.347 0.266,1.962l-11.233,14.763c-0.239,0.314 -0.599,0.513 -0.992,0.547c-0.393,0.035 -0.782,-0.098 -1.071,-0.365l-6.336,-5.841c-0.092,-0.085 -0.169,-0.178 -0.233,-0.278Zm0.823,3.542l-1.822,2.395c-0.239,0.314 -0.599,0.513 -0.992,0.547c-0.392,0.035 -0.782,-0.098 -1.071,-0.365l-6.336,-5.841c-0.568,-0.524 -0.604,-1.411 -0.081,-1.979c0.524,-0.568 1.411,-0.604 1.979,-0.08c-0,-0 5.204,4.798 5.204,4.798l1.062,-1.395l0.111,0.126l1.946,1.794Zm2.005,-7.258l5.178,-6.806c0.468,-0.615 1.347,-0.734 1.962,-0.266c0.615,0.468 0.734,1.347 0.266,1.962l-5.275,6.933l-1.473,-1.358l-0.549,-0.413l-0.109,-0.052Z" /></svg>