<?xml version="1.0" encoding="UTF-8" standalone="no"?>
<!DOCTYPE svg PUBLIC "-//W3C//DTD SVG 1.1//EN" "http://www.w3.org/Graphics/SVG/1.1/DTD/svg11.dtd">
<svg viewBox="0 0 24 24" width="100%" height="100%" version="1.1" xmlns="http://www.w3.org/2000/svg" xml:space="preserve" fill="currentColor" title="Lightning icon"><path d="M14.876,9.622c0.951,0.114 2.021,0.265 3.194,0.47c0.343,0.06 0.639,0.276 0.802,0.584c0.162,0.308 0.172,0.674 0.028,0.991c-0.983,2.157 -5.217,8.738 -9.551,10.793c-0.366,0.174 -0.798,0.137 -1.13,-0.097c-0.332,-0.234 -0.512,-0.629 -0.471,-1.032c0.268,-2.65 0.729,-4.807 1.116,-6.317c-1.143,-0.112 -2.138,-0.334 -2.923,-0.463c-0.302,-0.05 -0.571,-0.22 -0.744,-0.473c-0.174,-0.252 -0.237,-0.564 -0.175,-0.864c0.431,-2.095 3.47,-9.099 4.973,-11.231c0.18,-0.256 0.46,-0.425 0.77,-0.467c2.183,-0.291 4.759,0.225 6.613,0.871c0.472,0.164 0.778,0.62 0.753,1.119c-0.038,0.746 -0.657,2.022 -1.486,3.346c-0.592,0.946 -1.27,1.941 -1.769,2.77Zm0.708,-5.437c-1.247,-0.339 -2.697,-0.575 -4.026,-0.487c-1.23,1.978 -3.205,6.429 -4.015,8.86c0.804,0.145 1.74,0.284 2.767,0.275c0.357,-0.003 0.693,0.162 0.908,0.446c0.215,0.284 0.283,0.653 0.182,0.995c-0.291,0.994 -0.751,2.693 -1.109,4.935c2.471,-1.962 4.681,-5.119 5.858,-7.147c-1.165,-0.171 -2.194,-0.287 -3.068,-0.371c-0.31,-0.03 -0.593,-0.186 -0.783,-0.433c-0.19,-0.246 -0.269,-0.56 -0.219,-0.867c0.12,-0.742 1.103,-2.319 2.126,-3.899c0.522,-0.805 1.04,-1.619 1.379,-2.307Z" /></svg>