<?xml version="1.0" encoding="UTF-8" standalone="no"?>
<!DOCTYPE svg PUBLIC "-//W3C//DTD SVG 1.1//EN" "http://www.w3.org/Graphics/SVG/1.1/DTD/svg11.dtd">
<svg viewBox="0 0 24 24" width="100%" height="100%" version="1.1" xmlns="http://www.w3.org/2000/svg" xml:space="preserve" fill="currentColor" title="Traffic Cone icon"><path d="M19.491,20.125l1.509,0c0.621,-0 1.125,0.504 1.125,1.125c0,0.621 -0.504,1.125 -1.125,1.125l-18,0c-0.621,-0 -1.125,-0.504 -1.125,-1.125c0,-0.621 0.504,-1.125 1.125,-1.125l1.507,0c1.163,-6.126 2.711,-13.287 4.45,-16.91c0.463,-0.962 1.719,-1.572 3.038,-1.572c1.32,0 2.575,0.613 3.034,1.576c1.733,3.645 3.273,10.871 4.462,16.906Zm-12.8,0l10.613,0c-0.247,-1.248 -0.507,-2.542 -0.78,-3.84l-9.071,-0c-0.268,1.292 -0.522,2.586 -0.762,3.84Zm9.429,-5.715c-0.227,-1.024 -0.461,-2.036 -0.702,-3.015l-6.867,-0c-0.241,0.977 -0.474,1.989 -0.699,3.015l8.268,-0Zm-1.186,-4.89c-0.579,-2.134 -1.195,-4.015 -1.843,-5.379c-0.048,-0.101 -0.162,-0.15 -0.278,-0.2c-0.241,-0.105 -0.53,-0.152 -0.819,-0.152c-0.288,0 -0.579,0.046 -0.821,0.152c-0.117,0.051 -0.232,0.101 -0.281,0.203c-0.654,1.362 -1.275,3.24 -1.856,5.376l5.898,-0Z" /></svg>